<svg xmlns="http://www.w3.org/2000/svg" version="1.1" xmlns:xlink="http://www.w3.org/1999/xlink" xmlns:svgjs="http://svgjs.com/svgjs" width="1440" height="560" preserveAspectRatio="none" viewBox="0 0 1440 560"><g mask="url(&quot;#SvgjsMask1094&quot;)" fill="none"><path d="M -862.7886636063761,449 C -574.79,384.4 1.21,126 577.2113363936239,126 C 1153.21,126 1844.65,461.6 2017.211336393624,449 C 2189.77,436.4 1555.44,140.2 1440,63" stroke="rgba(51, 121, 194, 0.58)" stroke-width="2"></path><path d="M -2480.4445022446967,501 C -2192.44,409.6 -1616.44,41.8 -1040.4445022446967,44 C -464.44,46.2 -96.53,498.6 399.55549775530335,512 C 895.64,525.4 1231.91,191.2 1440,111" stroke="rgba(51, 121, 194, 0.58)" stroke-width="2"></path><path d="M -959.4498755808612,38 C -671.45,129.4 -95.45,493 480.5501244191388,495 C 1056.55,497 1728.66,76.2 1920.5501244191387,48 C 2112.44,19.8 1536.11,292.8 1440,354" stroke="rgba(51, 121, 194, 0.58)" stroke-width="2"></path><path d="M -1467.0693610850876,210 C -1179.07,255.2 -603.07,453.6 -27.069361085087706,436 C 548.93,418.4 1119.52,107.2 1412.9306389149124,122 C 1706.34,136.8 1434.59,432.4 1440,510" stroke="rgba(51, 121, 194, 0.58)" stroke-width="2"></path><path d="M -2637.2480280516165,194 C -2349.25,225.6 -1773.25,342.4 -1197.2480280516168,352 C -621.25,361.6 -284.7,211.2 242.75197194838324,242 C 770.2,272.8 1200.55,453.2 1440,506" stroke="rgba(51, 121, 194, 0.58)" stroke-width="2"></path></g><defs><mask id="SvgjsMask1094"><rect width="1440" height="560" fill="#ffffff"></rect></mask></defs></svg>